<svg xmlns="http://www.w3.org/2000/svg" xmlns:xlink="http://www.w3.org/1999/xlink" width="143" height="32" viewBox="0 0 143 32"><defs><path id="a0h3c" d="M2356.604 5506.028c-.906-.587-1.55-1.5-1.93-2.74-.383-1.237-.574-2.884-.574-4.941v-2.802c0-2.077.218-3.746.655-5.005.436-1.259 1.118-2.177 2.046-2.754.927-.577 2.144-.866 3.65-.866 1.484 0 2.673.294 3.568.882.895.587 1.55 1.505 1.964 2.754.414 1.248.622 2.912.622 4.99v2.8c0 2.058-.202 3.71-.605 4.959-.404 1.248-1.059 2.162-1.965 2.738-.905.578-2.133.866-3.683.866-1.593 0-2.842-.294-3.748-.881m5.075-3.022c.25-.63.376-1.658.376-3.085v-6.013c0-1.385-.126-2.397-.376-3.037-.252-.64-.694-.96-1.327-.96-.61 0-1.042.32-1.292.96-.252.64-.377 1.652-.377 3.037v6.013c0 1.427.12 2.455.36 3.085.24.63.676.944 1.31.944.632 0 1.074-.315 1.326-.944"/><path id="a0h3a" d="M2419.81 5487.16h12.426v21.173h-12.426z"/><path id="a0h3e" d="M2424.394 5499.316v1.035c0 1.314.039 2.3.118 2.956.08.657.243 1.135.493 1.436.249.3.633.451 1.154.451.701 0 1.182-.267 1.443-.802.26-.534.401-1.425.424-2.672l4.04.234c.023.179.034.424.034.735 0 1.893-.526 3.306-1.578 4.242-1.052.934-2.541 1.402-4.465 1.402-2.308 0-3.927-.712-4.855-2.137-.929-1.425-1.392-3.63-1.392-6.613v-3.573c0-3.073.48-5.315 1.443-6.73.962-1.413 2.609-2.12 4.94-2.12 1.607 0 2.84.29 3.7.868.86.58 1.466 1.481 1.817 2.705.351 1.225.526 2.917.526 5.076v3.507zm.591-8.615c-.238.29-.397.762-.476 1.418-.08.656-.12 1.65-.12 2.985v1.468h3.437v-1.468c0-1.312-.045-2.307-.136-2.985-.09-.678-.255-1.157-.493-1.435s-.607-.417-1.106-.417c-.5 0-.868.145-1.106.434z"/><path id="a0h3f" d="M2344.917 5499.474l-4.887-18.704h4.264l1.712 8.478c.436 2.09.757 3.87.965 5.344h.124c.146-1.056.467-2.826.965-5.311l1.774-8.511h4.265l-4.95 18.704v8.973h-4.232z"/><path id="a0h3g" d="M2380.675 5486.92v19.668h-3.61l-.402-2.406h-.1c-.981 1.818-2.453 2.727-4.414 2.727-1.36 0-2.363-.428-3.01-1.283-.646-.856-.969-2.193-.969-4.01v-14.696h4.614v14.438c0 .878.1 1.503.301 1.877.2.375.535.562 1.003.562.402 0 .786-.118 1.154-.353.368-.236.64-.535.82-.898v-15.626z"/><path id="a0h3h" d="M2402.565 5486.92v19.668h-3.61l-.402-2.406h-.1c-.982 1.818-2.453 2.727-4.414 2.727-1.36 0-2.363-.428-3.01-1.283-.646-.856-.969-2.193-.969-4.01v-14.696h4.614v14.438c0 .878.1 1.503.3 1.877.202.375.536.562 1.004.562.402 0 .786-.118 1.154-.353a2.22 2.22 0 0 0 .82-.898v-15.626z"/><path id="a0h3i" d="M2391.615 5484.432h-4.188v24.015h-4.128v-24.015h-4.189v-3.662h12.505z"/><path id="a0h3j" d="M2417.79 5490.408c-.27-1.217-.707-2.1-1.312-2.645-.604-.545-1.436-.819-2.494-.819-.821 0-1.588.226-2.3.677a4.647 4.647 0 0 0-1.653 1.78H2410v-10.171h-4.309v27.394h3.693l.454-1.827h.097c.345.651.863 1.165 1.555 1.543.69.378 1.458.567 2.3.567 1.512 0 2.625-.677 3.337-2.03.713-1.355 1.07-3.47 1.07-6.346v-3.054c0-2.161-.136-3.851-.406-5.07zm-4.094 7.873c0 1.406-.06 2.509-.179 3.306-.119.798-.319 1.365-.6 1.7-.282.336-.661.504-1.136.504-.368 0-.709-.083-1.022-.252a1.923 1.923 0 0 1-.763-.756v-10.957c.15-.524.41-.955.779-1.291.367-.335.767-.504 1.2-.504.455 0 .806.173 1.056.52.248.346.421.928.519 1.748.097.818.146 1.983.146 3.494z"/><path id="a0h3b" d="M2290.01 5478.06h45.14v31.93h-45.14z"/><path id="a0h3l" d="M2334.208 5483.046a5.684 5.684 0 0 0-3.992-4.033c-3.52-.953-17.636-.953-17.636-.953s-14.116 0-17.636.953a5.683 5.683 0 0 0-3.99 4.033c-.944 3.557-.944 10.979-.944 10.979s0 7.422.943 10.979a5.683 5.683 0 0 0 3.991 4.032c3.52.954 17.636.954 17.636.954s14.116 0 17.636-.954a5.684 5.684 0 0 0 3.992-4.032c.943-3.557.943-10.98.943-10.98s0-7.421-.943-10.978zm-26.142 17.834v-13.7l11.718 6.85z"/><clipPath id="a0h3d"><use xlink:href="#a0h3a"/></clipPath><clipPath id="a0h3k"><use xlink:href="#a0h3b"/></clipPath></defs><g><g transform="translate(-2290 -5478)"><g><use fill="#fff" xlink:href="#a0h3c"/></g><g><g/><g clip-path="url(#a0h3d)"><use fill="#fff" xlink:href="#a0h3e"/></g></g><g><use fill="#fff" xlink:href="#a0h3f"/></g><g><use fill="#fff" xlink:href="#a0h3g"/></g><g><use fill="#fff" xlink:href="#a0h3h"/></g><g><use fill="#fff" xlink:href="#a0h3i"/></g><g><use fill="#fff" xlink:href="#a0h3j"/></g><g><g/><g clip-path="url(#a0h3k)"><use fill="#fff" xlink:href="#a0h3l"/></g></g></g></g></svg>