<svg xmlns="http://www.w3.org/2000/svg" xmlns:xlink="http://www.w3.org/1999/xlink" width="39" height="38" viewBox="0 0 39 38"><defs><path id="a" d="M434.033 6796h-33.806a2.097 2.097 0 0 0-2.097 2.097v33.806c0 1.158.939 2.097 2.098 2.097h18.2v-14.695h-4.935v-5.752h4.936v-4.23c0-4.908 2.997-7.58 7.376-7.58 2.097 0 3.9.156 4.425.226v5.127l-3.03.001c-2.374 0-2.834 1.132-2.834 2.792v3.664h5.696l-.742 5.752h-4.954V6834h9.667a2.097 2.097 0 0 0 2.097-2.097v-33.806a2.097 2.097 0 0 0-2.097-2.097"/></defs><g clip-path="url(#clip-6AE25D72-3983-41D0-ACFE-F4CE96561D85)" transform="translate(-398 -6796)"><use fill="#fefefe" xlink:href="#a"/></g></svg>