<svg id="レイヤー_1" xmlns="http://www.w3.org/2000/svg" viewBox="0 0 600 174"><style>.st0{fill:#fff}</style><path class="st0" d="M180.5 67.3h-12.6l-.1.2-22.8 54.8h12.8l4.9-11.8h23l4.9 11.8h12.8l-22.9-55zm1.1 33.4h-14.9l7.4-17.9 7.5 17.9zm81.1-33.4v55h-11.8L224.3 87v35.3h-11.8v-55h11.8l26.6 35.3V67.3h11.8zM529 100.7v21.6h-11.8v-21.6l-.9-1.4-20.2-32h13.5L523 88.6l13.4-21.3H550l-21 33.4zm-479-49h14.6l21.9 52.9L93.9 87 79.2 51.7h14.6l7.3 17.6 7.3-17.6H123L108.5 87l7.3 17.6 21.9-52.9h14.6l-29.2 70.6h-14.6l-7.3-17.6-7.3 17.6H79.2L50 51.7zm366.1 15.6h-22.7v55h22.7c15.2 0 27.5-12.3 27.5-27.5s-12.3-27.5-27.5-27.5zm0 43.2h-10.9V79.1h10.9c8.7 0 15.7 7 15.7 15.7s-7 15.7-15.7 15.7zm-96.7-31.4h-15.8v43.2h-11.8V79.1H276V67.3h43.4v11.8zm25.2 0v9.8h28.7v11.8h-28.7v9.8h31.6v11.8h-43.4v-55h43.4v11.8h-31.6zm155.7 31.4v11.8h-43.4v-55h11.8v43.2h31.6z"/></svg>