<svg xmlns="http://www.w3.org/2000/svg" xmlns:xlink="http://www.w3.org/1999/xlink" width="43" height="36" viewBox="0 0 43 36"><defs><path id="a" d="M325.543 6832.017c16.251 0 25.138-13.855 25.138-25.87 0-.394-.007-.785-.025-1.175a18.273 18.273 0 0 0 4.408-4.708 17.253 17.253 0 0 1-5.074 1.431 9.082 9.082 0 0 0 3.885-5.03 17.403 17.403 0 0 1-5.61 2.208c-1.612-1.768-3.908-2.873-6.45-2.873-4.879 0-8.836 4.072-8.836 9.092 0 .713.078 1.407.23 2.073-7.343-.38-13.855-3.998-18.212-9.5a9.263 9.263 0 0 0-1.196 4.57c0 3.155 1.56 5.94 3.931 7.569a8.582 8.582 0 0 1-4.001-1.138c-.002.038-.002.076-.002.116 0 4.404 3.046 8.08 7.088 8.914a8.626 8.626 0 0 1-3.99.156c1.125 3.612 4.386 6.24 8.254 6.315-3.025 2.439-6.834 3.892-10.973 3.892a17.47 17.47 0 0 1-2.108-.126c3.91 2.579 8.553 4.084 13.543 4.084"/></defs><g clip-path="url(#clip-15CC82A1-D380-493A-827E-0289530F7430)" transform="translate(-312 -6796)"><use fill="#fff" xlink:href="#a"/></g></svg>